<?xml version="1.0" standalone="no"?>
<!DOCTYPE svg PUBLIC "-//W3C//DTD SVG 20010904//EN"
 "http://www.w3.org/TR/2001/REC-SVG-20010904/DTD/svg10.dtd">
<svg version="1.0" xmlns="http://www.w3.org/2000/svg"
 width="225.000000pt" height="225.000000pt" viewBox="0 0 225.000000 225.000000"
 preserveAspectRatio="xMidYMid meet">
<metadata>
Created by potrace 1.14, written by Peter Selinger 2001-2017
</metadata>
<g transform="translate(0.000000,225.000000) scale(0.100000,-0.100000)"
fill="#000000" stroke="none">
<path d="M0 2196 l0 -53 102 -94 c223 -205 413 -383 416 -389 1 -4 114 -110
249 -236 136 -126 295 -274 353 -329 231 -219 418 -394 480 -450 36 -32 106
-97 155 -145 115 -111 289 -274 405 -380 l90 -82 0 122 0 123 -82 76 c-46 42
-128 118 -183 170 -126 119 -192 182 -380 356 -82 76 -195 182 -250 236 -55
53 -199 188 -320 300 -121 112 -272 254 -335 315 -63 61 -173 164 -245 230
-71 65 -168 156 -216 202 l-85 82 -77 0 -77 0 0 -54z"/>
<path d="M441 2197 c136 -125 634 -592 744 -697 66 -63 217 -205 335 -315 251
-235 222 -207 340 -319 52 -50 133 -126 180 -170 47 -44 113 -107 148 -140
l62 -60 0 877 0 877 -932 0 -933 -1 56 -52z m895 -164 c8 -28 -41 -193 -57
-193 -11 0 -51 109 -56 158 -5 34 -1 50 22 84 l28 42 28 -32 c16 -18 32 -44
35 -59z m722 57 c30 -28 36 -78 19 -137 -15 -50 -44 -113 -52 -113 -2 0 -16
37 -31 83 -29 90 -28 116 7 160 25 32 29 33 57 7z m-864 -172 c14 -13 28 -36
32 -52 6 -26 5 -28 -12 -21 -10 5 -39 10 -64 11 -37 1 -46 5 -48 22 -4 23 30
62 52 62 8 0 26 -10 40 -22z m246 2 c11 -11 20 -30 20 -42 0 -21 -5 -23 -47
-23 -27 -1 -57 -5 -67 -9 -17 -8 -18 -6 -12 20 7 32 48 74 72 74 8 0 23 -9 34
-20z m511 -9 c33 -33 41 -78 12 -66 -10 4 -39 10 -65 12 -38 5 -48 9 -48 24 0
23 34 59 56 59 8 0 29 -13 45 -29z m237 13 c13 -9 22 -26 22 -42 0 -26 -3 -27
-47 -27 -27 0 -57 -5 -67 -9 -17 -8 -18 -6 -12 20 7 30 48 74 69 74 7 0 23 -7
35 -16z m-880 -121 c-15 -2 -42 -2 -60 0 -18 2 -6 4 27 4 33 0 48 -2 33 -4z
m760 0 c-15 -2 -42 -2 -60 0 -18 2 -6 4 27 4 33 0 48 -2 33 -4z m-762 -75 c5
-29 3 -38 -13 -47 -15 -7 -25 -7 -38 3 -18 13 -18 15 -1 61 16 40 20 45 33 33
7 -8 16 -31 19 -50z m761 -6 c4 -18 1 -29 -13 -39 -39 -29 -63 7 -45 68 l13
44 19 -24 c11 -13 22 -35 26 -49z m-837 38 c0 -29 -69 -40 -89 -16 -10 12 -7
15 21 18 46 5 68 5 68 -2z m183 0 c30 -1 31 -1 13 -15 -25 -19 -70 -19 -85 -1
-13 16 3 28 27 20 8 -2 28 -4 45 -4z m561 1 c5 0 3 -8 -4 -16 -16 -19 -64 -19
-79 -1 -10 12 -8 15 11 18 20 3 46 3 72 -1z m195 -17 c-15 -18 -63 -18 -78 0
-10 12 -8 15 11 18 13 2 35 1 51 -1 22 -3 25 -6 16 -17z m-466 -53 c23 -39 21
-109 -4 -173 -11 -29 -24 -57 -28 -61 -10 -11 -61 129 -61 168 0 39 34 95 58
95 10 0 25 -13 35 -29z m-131 -152 c19 -10 54 -77 44 -86 -2 -2 -13 0 -24 6
-12 6 -39 11 -61 11 -37 0 -41 3 -41 24 0 14 10 32 22 40 27 19 33 19 60 5z
m260 -7 c3 -4 8 -18 10 -32 3 -23 -1 -25 -48 -31 -29 -4 -57 -10 -63 -13 -6
-4 -11 0 -11 9 0 22 27 72 42 79 15 6 60 -2 70 -12z m-107 -112 c-3 -5 -30
-10 -60 -10 -30 0 -57 5 -60 10 -4 6 18 10 60 10 42 0 64 -4 60 -10z m-26 -78
c9 -29 7 -34 -16 -49 -24 -16 -26 -16 -39 2 -14 18 -10 52 8 89 9 16 12 16 24
4 8 -8 18 -28 23 -46z m-89 18 c-12 -22 -49 -26 -81 -9 -31 16 -12 29 42 29
47 0 49 -1 39 -20z m210 10 c0 -16 -28 -30 -57 -30 -18 0 -33 2 -33 4 0 2 -3
12 -6 21 -6 14 1 16 45 13 28 -2 51 -5 51 -8z"/>
<path d="M0 971 l0 -971 1037 0 1038 0 -30 28 c-185 176 -442 418 -576 543
-92 85 -240 224 -330 309 -90 85 -227 213 -304 285 -77 72 -214 201 -305 286
-91 86 -196 184 -234 220 -39 35 -117 109 -174 164 -57 55 -108 102 -113 103
-5 2 -9 -378 -9 -967z m475 165 c19 -13 18 -15 -9 -57 l-29 -43 -19 23 c-26
33 -34 71 -17 82 21 13 53 11 74 -5z m-144 -28 c22 -12 39 -24 39 -27 0 -3
-12 -11 -26 -18 -36 -17 -71 1 -76 38 -6 36 9 37 63 7z m289 17 c0 -4 -7 -19
-15 -35 -16 -31 -46 -38 -88 -21 -18 6 -18 7 0 23 30 27 103 50 103 33z m-248
-135 c28 0 30 -2 23 -27 -9 -36 -8 -36 -44 -28 -17 3 -33 5 -37 3 -8 -5 -16
-257 -8 -270 13 -20 23 23 23 98 1 54 6 77 20 95 l18 23 12 -65 c15 -90 14
-107 -9 -119 -16 -9 -20 -21 -20 -61 0 -58 14 -58 24 -1 3 21 15 47 26 57 24
22 25 46 4 109 -13 38 -14 52 -4 76 22 52 35 55 66 15 l27 -36 -16 -53 c-19
-58 -21 -94 -9 -114 5 -8 14 21 22 75 19 127 23 135 43 86 11 -29 16 -77 18
-164 1 -114 0 -124 -20 -140 -18 -15 -20 -22 -11 -45 8 -21 7 -31 -6 -45 -16
-18 -18 -18 -30 -1 -8 11 -11 38 -9 77 4 58 4 58 -7 23 -15 -49 -45 -53 -50
-6 -2 17 -8 33 -15 35 -9 3 -10 -14 -6 -67 6 -71 6 -72 -18 -68 -21 3 -24 8
-24 46 0 39 -3 44 -40 65 -22 12 -49 37 -61 55 -27 39 -48 156 -39 214 13 84
25 108 62 123 23 10 38 25 46 46 10 27 12 28 15 10 3 -16 10 -21 34 -21z m184
-16 c-3 -9 -6 -20 -6 -24 0 -5 -10 -15 -22 -21 -18 -10 -24 -8 -35 7 -7 10
-13 26 -13 36 0 14 8 18 41 18 33 0 40 -3 35 -16z m82 -64 c40 -79 24 -246
-29 -314 -11 -14 -24 -26 -29 -26 -4 0 -10 75 -12 168 -4 139 -2 172 11 195
20 35 31 31 59 -23z m374 -387 c-6 -10 -41 -34 -78 -53 -37 -20 -69 -41 -71
-47 -2 -6 24 -26 59 -44 75 -39 205 -164 237 -227 45 -88 0 -62 -88 51 -34 42
-80 91 -104 108 -62 47 -191 103 -279 123 -86 20 -121 43 -47 32 107 -15 207
-18 242 -7 20 7 58 30 84 51 50 40 61 43 45 13z m-720 -29 c4 -3 8 -14 8 -25
0 -17 -7 -19 -60 -19 l-60 0 0 31 0 32 52 -7 c28 -4 55 -9 60 -12z m208 -99
c36 -19 37 -31 7 -76 -30 -44 -86 -53 -111 -17 -19 27 -21 79 -4 96 17 17 73
15 108 -3z"/>
<path d="M432 830 c0 -19 2 -27 5 -17 2 9 2 25 0 35 -3 9 -5 1 -5 -18z"/>
<path d="M500 671 c0 -10 3 -33 6 -51 9 -41 24 -20 24 33 0 26 -4 37 -15 37
-8 0 -15 -8 -15 -19z"/>
</g>
</svg>
